<svg xmlns="http://www.w3.org/2000/svg"  width="38" height="38" viewBox="0 0 38 38">
  <path
    fill="#252528"
    fill-rule="nonzero"
    d="M21.5 0a3 3 0 0 1 3 3v.97c.42.154.833.326 1.238.514l.687-.687a3 3 0 0 1 4.242 0l3.536 3.536a3 3 0 0 1 0 4.242l-.687.687c.189.405.36.819.514 1.239L35 13.5a3 3 0 0 1 3 3v5a3 3 0 0 1-3 3h-.97c-.154.42-.326.833-.514 1.238l.687.687a3 3 0 0 1 0 4.242l-3.536 3.536a3 3 0 0 1-4.242 0l-.687-.687c-.405.188-.818.36-1.238.513V35a3 3 0 0 1-3 3h-5a3 3 0 0 1-3-3v-.97c-.42-.154-.833-.325-1.238-.514l-.687.687a3 3 0 0 1-4.242 0l-3.536-3.536a3 3 0 0 1 0-4.242l.687-.687c-.188-.405-.36-.818-.513-1.238H3a3 3 0 0 1-3-3v-5a3 3 0 0 1 3-3h.97c.154-.42.325-.833.514-1.238l-.687-.687a3 3 0 0 1 0-4.242l3.536-3.536a3 3 0 0 1 4.242 0l.687.687c.27-.126.544-.244.82-.354l.419-.16L13.5 3a3 3 0 0 1 3-3h5Zm0 2h-5a1 1 0 0 0-1 1l.001 2.42-.7.22c-.786.247-1.547.563-2.276.944l-.65.34L10.16 5.21a1 1 0 0 0-1.414 0L5.211 8.747a1 1 0 0 0 0 1.414l1.713 1.714-.34.65c-.38.729-.697 1.49-.944 2.275l-.22.701L3 15.5a1 1 0 0 0-1 1v5a1 1 0 0 0 1 1h2.42l.22.7c.248.786.563 1.547.944 2.275l.34.65L5.21 27.84a1 1 0 0 0 0 1.414l3.536 3.536a1 1 0 0 0 1.414 0l1.714-1.713.65.34c.729.38 1.49.697 2.275.944l.701.22L15.5 35a1 1 0 0 0 1 1h5a1 1 0 0 0 1-1v-2.42l.7-.22a13.906 13.906 0 0 0 2.275-.944l.65-.34 1.714 1.713a1 1 0 0 0 1.414 0l3.536-3.536a1 1 0 0 0 0-1.414l-1.713-1.714.34-.65c.38-.728.696-1.489.943-2.275l.22-.7H35a1 1 0 0 0 1-1v-5a1 1 0 0 0-1-1l-2.42.001-.22-.7a13.906 13.906 0 0 0-.944-2.276l-.34-.65 1.713-1.714a1 1 0 0 0 0-1.414l-3.536-3.536a1 1 0 0 0-1.414 0l-1.714 1.713-.65-.34A13.906 13.906 0 0 0 23.2 5.64l-.7-.22V3a1 1 0 0 0-1-1ZM19 12a7 7 0 1 1 0 14 7 7 0 0 1 0-14Zm0 2a5 5 0 1 0 0 10 5 5 0 0 0 0-10Z"
  />
</svg>
